<svg width="24" height="24" viewBox="0 0 24 24" fill="none" xmlns="http://www.w3.org/2000/svg">
<path d="M23.3835 2.14987C22.8025 1.37959 21.9159 0.937857 20.9511 0.937857H20.5426V0.703488C20.5426 0.315186 20.2278 0.000382567 19.8395 0.000382567C19.4512 0.000382567 19.1364 0.315186 19.1364 0.703488V2.57844C19.1364 2.96674 19.4512 3.28154 19.8395 3.28154C20.2278 3.28154 20.5426 2.96674 20.5426 2.57844V2.34407H20.9511C21.4706 2.34407 21.948 2.58195 22.2608 2.99669C22.5737 3.41143 22.6713 3.93581 22.5285 4.43534L20.6624 10.9668C20.1416 12.7895 18.454 14.0625 16.5584 14.0625C14.6628 14.0625 12.9751 12.7895 12.4543 10.9668L10.5883 4.43529C10.4455 3.93576 10.5431 3.41138 10.856 2.99664C11.1688 2.58186 11.6462 2.34402 12.1657 2.34402H12.5741V2.57839C12.5741 2.96669 12.8889 3.2815 13.2772 3.2815C13.6655 3.2815 13.9803 2.96669 13.9803 2.57839V0.703442C13.9803 0.31514 13.6655 0.000335693 13.2772 0.000335693C12.8889 0.000335693 12.5741 0.31514 12.5741 0.703442V0.93781H12.1657C11.2009 0.93781 10.3143 1.37959 9.73328 2.14982C9.15223 2.9201 8.97107 3.8939 9.23614 4.82158L11.1023 11.3531C11.4438 12.5483 12.1489 13.5758 13.1413 14.3244C13.354 14.4848 13.5758 14.628 13.8047 14.7556L15.8553 19.5957V20.1032C15.8553 21.4763 14.7382 22.5935 13.365 22.5935C11.9918 22.5935 10.8747 21.4763 10.8747 20.1032V15.2812C10.8747 13.0584 9.06631 11.25 6.84356 11.25C4.62081 11.25 2.81242 13.0584 2.81242 15.2812V16.9456C1.20972 17.2722 0 18.6926 0 20.3904C0 22.3289 1.57707 23.9059 3.51553 23.9059C5.45399 23.9059 7.03106 22.3289 7.03106 20.3904C7.03106 18.6927 5.82134 17.2723 4.21863 16.9456V15.2812C4.21863 13.8338 5.3962 12.6562 6.84356 12.6562C8.29093 12.6562 9.46849 13.8338 9.46849 15.2812V20.1032C9.46849 22.2517 11.2165 23.9997 13.365 23.9997C15.5136 23.9997 17.2615 22.2517 17.2615 20.1032V19.5957L19.3122 14.7556C19.541 14.628 19.7629 14.4848 19.9756 14.3244C20.968 13.5758 21.673 12.5483 22.0146 11.3531L23.8807 4.82158C24.1458 3.89395 23.9645 2.9201 23.3835 2.14987ZM5.62485 20.3904C5.62485 21.5535 4.67861 22.4997 3.51553 22.4997C2.35245 22.4997 1.40621 21.5535 1.40621 20.3904C1.40621 19.2273 2.35245 18.2811 3.51553 18.2811C4.67861 18.2811 5.62485 19.2273 5.62485 20.3904ZM16.5584 17.6506L15.5998 15.3879C15.9137 15.4411 16.2339 15.4687 16.5585 15.4687C16.883 15.4687 17.2032 15.4411 17.5171 15.3879L16.5584 17.6506Z" fill="#979C9E"/>
<path d="M3.5155 21.0935C3.90383 21.0935 4.21863 20.7787 4.21863 20.3904C4.21863 20.0021 3.90383 19.6873 3.5155 19.6873C3.12718 19.6873 2.81238 20.0021 2.81238 20.3904C2.81238 20.7787 3.12718 21.0935 3.5155 21.0935Z" fill="#979C9E"/>
</svg>
