<svg width="24" height="25" viewBox="0 0 24 25" fill="none" xmlns="http://www.w3.org/2000/svg">
<path d="M23.3835 2.64987C22.8025 1.87959 21.9159 1.43786 20.9511 1.43786H20.5426V1.20349C20.5426 0.815186 20.2278 0.500383 19.8395 0.500383C19.4512 0.500383 19.1364 0.815186 19.1364 1.20349V3.07844C19.1364 3.46674 19.4512 3.78154 19.8395 3.78154C20.2278 3.78154 20.5426 3.46674 20.5426 3.07844V2.84407H20.9511C21.4706 2.84407 21.948 3.08195 22.2608 3.49669C22.5737 3.91143 22.6713 4.43581 22.5285 4.93534L20.6624 11.4668C20.1416 13.2895 18.454 14.5625 16.5584 14.5625C14.6628 14.5625 12.9751 13.2895 12.4543 11.4668L10.5883 4.93529C10.4455 4.43576 10.5431 3.91138 10.856 3.49664C11.1688 3.08186 11.6462 2.84402 12.1657 2.84402H12.5741V3.07839C12.5741 3.46669 12.8889 3.7815 13.2772 3.7815C13.6655 3.7815 13.9803 3.46669 13.9803 3.07839V1.20344C13.9803 0.81514 13.6655 0.500336 13.2772 0.500336C12.8889 0.500336 12.5741 0.81514 12.5741 1.20344V1.43781H12.1657C11.2009 1.43781 10.3143 1.87959 9.73328 2.64982C9.15223 3.4201 8.97107 4.3939 9.23614 5.32158L11.1023 11.8531C11.4438 13.0483 12.1489 14.0758 13.1413 14.8244C13.354 14.9848 13.5758 15.128 13.8047 15.2556L15.8553 20.0957V20.6032C15.8553 21.9763 14.7382 23.0935 13.365 23.0935C11.9918 23.0935 10.8747 21.9763 10.8747 20.6032V15.7812C10.8747 13.5584 9.06631 11.75 6.84356 11.75C4.62081 11.75 2.81242 13.5584 2.81242 15.7812V17.4456C1.20972 17.7722 0 19.1926 0 20.8904C0 22.8289 1.57707 24.4059 3.51553 24.4059C5.45399 24.4059 7.03106 22.8289 7.03106 20.8904C7.03106 19.1927 5.82134 17.7723 4.21863 17.4456V15.7812C4.21863 14.3338 5.3962 13.1562 6.84356 13.1562C8.29093 13.1562 9.46849 14.3338 9.46849 15.7812V20.6032C9.46849 22.7517 11.2165 24.4997 13.365 24.4997C15.5136 24.4997 17.2615 22.7517 17.2615 20.6032V20.0957L19.3122 15.2556C19.541 15.128 19.7629 14.9848 19.9756 14.8244C20.968 14.0758 21.673 13.0483 22.0146 11.8531L23.8807 5.32158C24.1458 4.39395 23.9645 3.4201 23.3835 2.64987ZM5.62485 20.8904C5.62485 22.0535 4.67861 22.9997 3.51553 22.9997C2.35245 22.9997 1.40621 22.0535 1.40621 20.8904C1.40621 19.7273 2.35245 18.7811 3.51553 18.7811C4.67861 18.7811 5.62485 19.7273 5.62485 20.8904ZM16.5584 18.1506L15.5998 15.8879C15.9137 15.9411 16.2339 15.9687 16.5585 15.9687C16.883 15.9687 17.2032 15.9411 17.5171 15.8879L16.5584 18.1506Z" fill="#979C9E"/>
<path d="M3.51562 21.5935C3.90395 21.5935 4.21875 21.2787 4.21875 20.8904C4.21875 20.5021 3.90395 20.1873 3.51562 20.1873C3.1273 20.1873 2.8125 20.5021 2.8125 20.8904C2.8125 21.2787 3.1273 21.5935 3.51562 21.5935Z" fill="#979C9E"/>
</svg>
